<svg height="470pt" viewBox="0 -19 470.2667 470" width="470pt" xmlns="http://www.w3.org/2000/svg"><path d="m63.878906 385.550781h378.992188v42.34375h-378.992188zm0 0" fill="#52b8d9"/><path d="m442.878906 431.894531h-379c-2.207031 0-4-1.792969-4-4v-42.34375c0-2.210937 1.792969-4 4-4h379c2.207032 0 4 1.789063 4 4v42.34375c0 2.207031-1.792968 4-4 4zm-375-8h371v-34.34375h-371zm0 0" fill="#63312d"/><path d="m27.390625 385.550781h378.992187v42.34375h-378.992187zm0 0" fill="#82d9ff"/><path d="m45.640625 403.789062h360.75v-18.238281h-379v42.34375h18.25zm0 0" fill="#caf4ff"/><path d="m406.390625 431.894531h-379c-2.207031 0-4-1.792969-4-4v-42.34375c0-2.210937 1.792969-4 4-4h379c2.207031 0 4 1.789063 4 4v42.34375c0 2.207031-1.792969 4-4 4zm-375-8h371v-34.34375h-371zm0 0" fill="#63312d"/><path d="m66.375 147.078125h337.527344v238.472656h-337.527344zm0 0" fill="#f9dd9d"/><path d="m235.136719 147.078125h16.34375v238.472656h-16.34375zm0 0" fill="#ffeecf"/><path d="m66.375 147.078125h16v238.472656h-16zm0 0" fill="#ffeecf"/><path d="m403.902344 389.550781h-337.535156c-2.207032 0-4-1.792969-4-4v-238.472656c0-2.207031 1.792968-4 4-4h337.527343c2.207031 0 4 1.792969 4 4v238.472656c.007813 2.207031-1.785156 4-3.992187 4zm-333.535156-8h329.527343v-230.472656h-329.527343zm0 0" fill="#63312d"/><path d="m466.269531 207.789062h-168.765625l-62.367187-60.710937h168.757812zm0 0" fill="#f8f3f3"/><path d="m231.136719 147.078125h8v238.472656h-8zm0 0" fill="#63312d"/><path d="m4 207.789062h168.765625l62.371094-60.710937h-168.761719zm0 0" fill="#f8f3f3"/><path d="m466.269531 211.796875h-168.765625c-1.039062 0-2.039062-.40625-2.792968-1.136719l-62.367188-60.710937c-1.167969-1.136719-1.527344-2.863281-.921875-4.367188.617187-1.511719 2.082031-2.496093 3.707031-2.496093h168.765625c1.039063 0 2.039063.40625 2.792969 1.136718l62.367188 60.710938c1.167968 1.136718 1.527343 2.863281.921874 4.375-.617187 1.503906-2.082031 2.488281-3.707031 2.488281zm-167.132812-8h157.292969l-54.152344-52.710937h-157.300782zm0 0" fill="#63312d"/><path d="m172.765625 211.796875h-168.765625c-1.632812 0-3.097656-.984375-3.703125-2.496094-.617187-1.511719-.25-3.238281.917969-4.375l62.367187-60.710937c.746094-.730469 1.746094-1.136719 2.792969-1.136719h168.761719c1.628906 0 3.09375.984375 3.703125 2.496094.617187 1.503906.246094 3.230469-.921875 4.367187l-62.367188 60.710938c-.742187.738281-1.742187 1.144531-2.785156 1.144531zm-158.917969-8h157.289063l54.152343-52.710937h-157.296874zm0 0" fill="#63312d"/><path d="m340.210938 240.203125 15.820312-15.820313 27.816406 27.816407-15.824218 15.820312zm0 0" fill="#f8f3f3"/><path d="m368.03125 272.019531c-1.023438 0-2.046875-.390625-2.832031-1.167969l-27.816407-27.8125c-1.558593-1.5625-1.558593-4.097656 0-5.65625l15.824219-15.824218c1.558594-1.5625 4.097657-1.5625 5.65625 0l27.816407 27.816406c1.558593 1.558594 1.558593 4.09375 0 5.65625l-15.824219 15.820312c-.777344.777344-1.800781 1.167969-2.824219 1.167969zm-22.160156-31.8125 22.160156 22.160157 10.167969-10.167969-22.160157-22.160157zm0 0" fill="#63312d"/><path d="m443.039062 325.4375-1.136718 1.136719c-8.671875 8.671875-22.726563 8.671875-31.398438 0l-50.511718-50.511719 32.535156-32.539062 50.511718 50.515624c8.671876 8.671876 8.671876 22.726563 0 31.398438zm0 0" fill="#82d9ff"/><path d="m426.207031 337.0625c-6.703125 0-13.414062-2.554688-18.527343-7.664062l-50.511719-50.511719c-.753907-.753907-1.167969-1.769531-1.167969-2.832031 0-1.066407.421875-2.082032 1.167969-2.832032l32.535156-32.53125c1.558594-1.558594 4.097656-1.558594 5.65625 0l50.511719 50.515625c10.214844 10.214844 10.214844 26.832031 0 37.054688l-1.136719 1.136719c-5.101563 5.109374-11.816406 7.664062-18.527344 7.664062zm-60.558593-61.007812 47.6875 47.6875c7.101562 7.09375 18.648437 7.09375 25.742187 0l1.136719-1.136719c7.097656-7.097657 7.097656-18.648438 0-25.742188l-47.6875-47.691406zm0 0" fill="#63312d"/><path d="m381.3125 173.988281c0 50.523438-40.957031 91.480469-91.480469 91.480469-50.523437 0-91.480469-40.957031-91.480469-91.480469 0-50.523437 40.957032-91.480469 91.480469-91.480469 50.523438 0 91.480469 40.957032 91.480469 91.480469zm0 0" fill="#f8f3f3"/><path d="m289.824219 269.46875c-25.503907 0-49.480469-9.933594-67.511719-27.96875-37.226562-37.222656-37.226562-97.796875 0-135.023438 18.03125-18.03125 42.007812-27.96875 67.511719-27.96875 25.503906 0 49.480469 9.9375 67.511719 27.96875s27.96875 42.007813 27.96875 67.511719c0 25.503907-9.9375 49.480469-27.96875 67.511719-18.03125 18.035156-42.007813 27.96875-67.511719 27.96875zm0-182.917969c-22.402344 0-44.800781 8.519531-61.855469 25.574219-34.105469 34.113281-34.105469 89.609375 0 123.710938 16.519531 16.519531 38.488281 25.625 61.855469 25.625 23.367187 0 45.335937-9.105469 61.855469-25.625 16.519531-16.519532 25.625-38.488282 25.625-61.855469 0-23.359375-9.105469-45.335938-25.625-61.855469-17.046876-17.046875-39.449219-25.574219-61.855469-25.574219zm0 0" fill="#63312d"/><path d="m352.941406 173.988281c0 34.855469-28.253906 63.113281-63.109375 63.113281s-63.113281-28.257812-63.113281-63.113281 28.257812-63.109375 63.113281-63.109375 63.109375 28.253906 63.109375 63.109375zm0 0" fill="#82d9ff"/><path d="m289.824219 241.0625c-17.183594 0-34.367188-6.546875-47.457031-19.625-26.167969-26.167969-26.167969-68.734375 0-94.902344 12.671874-12.671875 29.527343-19.664062 47.457031-19.664062 17.925781 0 34.773437 6.980468 47.453125 19.664062 26.167968 26.167969 26.167968 68.734375 0 94.902344-13.078125 13.078125-30.261719 19.625-47.453125 19.625zm0-126.183594c-15.785157 0-30.632813 6.152344-41.800781 17.320313-23.046876 23.046875-23.046876 60.542969 0 83.589843 23.046874 23.046876 60.542968 23.046876 83.589843 0 23.050781-23.046874 23.050781-60.542968 0-83.589843-11.148437-11.167969-26-17.320313-41.789062-17.320313zm0 0" fill="#63312d"/><path d="m189.230469 63.46875c0 32.769531-26.566407 59.335938-59.335938 59.335938s-59.335937-26.566407-59.335937-59.335938 26.566406-59.335938 59.335937-59.335938 59.335938 26.566407 59.335938 59.335938zm0 0" fill="#f9a287"/><path d="m129.894531 126.804688c-34.917969 0-63.335937-28.40625-63.335937-63.335938 0-34.925781 28.417968-63.335938 63.335937-63.335938 34.921875 0 63.335938 28.417969 63.335938 63.335938 0 34.921875-28.414063 63.335938-63.335938 63.335938zm0-118.671876c-30.511719 0-55.335937 24.824219-55.335937 55.335938s24.824218 55.335938 55.335937 55.335938 55.335938-24.824219 55.335938-55.335938-24.824219-55.335938-55.335938-55.335938zm0 0" fill="#63312d"/><path d="m129.894531 69.40625c-4.625 0-8.367187-3.746094-8.367187-8.367188v-27.203124c0-4.621094 3.742187-8.367188 8.367187-8.367188s8.367188 3.746094 8.367188 8.367188v27.203124c0 4.613282-3.75 8.367188-8.367188 8.367188zm0 0" fill="#f8f3f3"/><path d="m139.039062 92.957031c0 5.050781-4.09375 9.144531-9.144531 9.144531s-9.144531-4.09375-9.144531-9.144531 4.09375-9.144531 9.144531-9.144531 9.144531 4.09375 9.144531 9.144531zm0 0" fill="#f8f3f3"/><g fill="#63312d"><path d="m129.894531 73.40625c-6.824219 0-12.367187-5.554688-12.367187-12.367188v-27.203124c0-6.824219 5.542968-12.367188 12.367187-12.367188s12.367188 5.542969 12.367188 12.367188v27.195312c0 6.820312-5.550781 12.375-12.367188 12.375zm0-43.9375c-2.40625 0-4.367187 1.960938-4.367187 4.367188v27.195312c0 2.40625 1.960937 4.367188 4.367187 4.367188 2.410157 0 4.367188-1.960938 4.367188-4.367188v-27.195312c0-2.40625-1.957031-4.367188-4.367188-4.367188zm0 0"/><path d="m129.894531 106.101562c-7.246093 0-13.144531-5.894531-13.144531-13.144531 0-7.246093 5.898438-13.152343 13.144531-13.152343 7.25 0 13.144531 5.898437 13.144531 13.152343 0 7.25-5.902343 13.144531-13.144531 13.144531zm0-18.289062c-2.832031 0-5.144531 2.3125-5.144531 5.152344 0 2.832031 2.3125 5.144531 5.144531 5.144531s5.144531-2.3125 5.144531-5.144531c0-2.847656-2.3125-5.152344-5.144531-5.152344zm0 0"/></g></svg>